<svg fill="none" xmlns="http://www.w3.org/2000/svg" viewBox="0 0 310 310"><path d="M105 126c2-12-2-20-10-25-7-5-16-6-25-1l-39 18c-10 4-14 16-10 25 4 10 16 15 25 10l6-2-9 46c-2 14 7 25 19 28 13 2 25-7 28-20l15-79Z" fill="url(#a)"/><path d="M109 97c5 6 11 14 8 32l-8 43 2 35c0 12 6 18 16 18h26c8 0 12-7 15-15l20-49 2 47c0 11 6 17 15 17h30c8 0 12-5 16-14l38-95c4-9 1-19-9-19h-19c-7 0-12 2-15 9l-25 63-3-56c0-12-6-16-13-16h-19c-8 0-12 3-14 9l-26 63-3-58c0-10-4-14-12-14h-22Z" fill="url(#b)"/><path d="M109 97c5 6 11 14 8 32l-8 43 2 35c0 12 6 18 16 18h26c8 0 12-7 15-15l20-49 2 47c0 11 6 17 15 17h30c8 0 12-5 16-14l38-95c4-9 1-19-9-19h-19c-7 0-12 2-15 9l-25 63-3-56c0-12-6-16-13-16h-19c-8 0-12 3-14 9l-26 63-3-58c0-10-4-14-12-14h-22Z" fill="url(#c)"/><defs><linearGradient id="a" x1="62.4" y1="242.6" x2="62.4" y2="93.9" gradientUnits="userSpaceOnUse"><stop stop-color="#0167CA"/><stop offset="1" stop-color="#38A8FA"/></linearGradient><linearGradient id="b" x1="199.8" y1="228.3" x2="199.8" y2="94" gradientUnits="userSpaceOnUse"><stop stop-color="#C8C7C7"/><stop offset=".1" stop-color="#D6D5D5"/><stop offset=".2" stop-color="#E8E8E8"/><stop offset=".4" stop-color="#F5F5F5"/><stop offset=".6" stop-color="#FDFDFD"/><stop offset="1" stop-color="#fff"/></linearGradient><linearGradient id="c" x1="199.8" y1="242.6" x2="199.8" y2="93.9" gradientUnits="userSpaceOnUse"><stop stop-color="#0167CA"/><stop offset="1" stop-color="#38A8FA"/></linearGradient></defs></svg>